PathFileType	4	(X/Y/Z)	s05c0203.trc
DataRate	CameraRate	NumFrames	NumMarkers	Units	OrigDataRate	OrigDataStartFrame	OrigNumFrames
200	200	5	47	mm	200	1000	2000
Frame#	Time	racr			lacr			c7			jug			rlel			rdr			llel			ldr			s2			lic			ric			lasi			rasi			rpsi			lpsi			rgt			lgt			rth1			rth2			rth3			rth4			rlfc			rsh1			rsh2			rsh3			rsh4			rlmal			rcal			rtoe			rmt5			lth1			lth2			lth4			lth3			llfc			lmfc			lsh1			lsh2			lsh3			lsh4			llmal			lcal			ltoe			lmt5			SBIKE			LBIKE			RBIKE			
		X1	Y1	Z1	X2	Y2	Z2	X3	Y3	Z3	X4	Y4	Z4	X5	Y5	Z5	X6	Y6	Z6	X7	Y7	Z7	X8	Y8	Z8	X9	Y9	Z9	X10	Y10	Z10	X11	Y11	Z11	X12	Y12	Z12	X13	Y13	Z13	X14	Y14	Z14	X15	Y15	Z15	X16	Y16	Z16	X17	Y17	Z17	X18	Y18	Z18	X19	Y19	Z19	X20	Y20	Z20	X21	Y21	Z21	X22	Y22	Z22	X23	Y23	Z23	X24	Y24	Z24	X25	Y25	Z25	X26	Y26	Z26	X27	Y27	Z27	X28	Y28	Z28	X29	Y29	Z29	X30	Y30	Z30	X31	Y31	Z31	X32	Y32	Z32	X33	Y33	Z33	X34	Y34	Z34	X35	Y35	Z35	X36	Y36	Z36	X37	Y37	Z37	X38	Y38	Z38	X39	Y39	Z39	X40	Y40	Z40	X41	Y41	Z41	X42	Y42	Z42	X43	Y43	Z43	X44	Y44	Z44	X45	Y45	Z45	X46	Y46	Z46	X47	Y47	Z47	
1000	5.0000	506.007791	1277.927223	-200.572024	499.869886	1242.953434	-457.943026	476.558175	1343.202370	-343.639321	414.034949	1193.001059	-313.465083	505.528728	1108.419744	30.875567	671.562736	960.275830	-53.893342	457.111639	1020.357734	-657.003101	656.484959	967.783636	-501.183181	-99.115350	1186.072326	-257.765832	23.614603	1195.934250	-409.842848	66.174374	1200.456711	-130.149832	71.432060	1147.910319	-371.877169	97.124951	1135.534218	-161.855963	-59.695483	1232.998607	-217.051062	-69.104682	1237.991759	-302.626744	-2.929844	1059.771360	-102.655629	-17.618515	1118.253054	-439.609334	51.581893	952.979376	-90.179052	103.551037	880.571017	-88.138565	112.082582	792.768153	-94.374653	137.124986	893.683111	-95.287184	175.594897	654.687178	-115.182945	118.571545	563.404339	-87.493713	114.486203	475.276512	-99.915803	70.670725	401.467965	-103.804639	143.766483	469.527998	-123.831563	43.033823	266.935895	-112.498176	-29.393327	247.538159	-160.681757	254.222405	160.513385	-154.124990	149.558735	159.173484	-90.404190	106.474792	1061.352439	-444.469202	192.400025	1067.314785	-436.009026	198.812298	1098.844355	-415.322524	272.556310	1025.580243	-434.261325	406.267367	962.876971	-395.713510	389.277122	941.027419	-284.533190	330.308349	870.306579	-421.482094	299.904346	788.376195	-420.281363	230.944708	732.347186	-425.244887	326.902942	769.526902	-401.312477	166.046442	618.331203	-431.122382	93.896488	597.834289	-393.254059	364.174730	482.151788	-400.989720	254.149841	494.826280	-463.218674	-264.112305	892.225329	-284.741706	-53.485173	79.601221	-474.609988	-53.451220	79.263385	-77.003889	
1001	5.0050	506.769104	1276.599637	-201.755516	498.885963	1242.758692	-459.446081	476.498843	1342.713988	-344.553500	413.831190	1192.520886	-314.688845	506.073493	1108.783186	30.888786	671.445167	959.765817	-52.761293	456.213456	1019.453455	-657.746420	656.071482	967.531946	-501.800618	-99.303017	1187.206376	-257.251135	22.941457	1197.442059	-409.410281	66.157769	1200.311671	-129.839556	70.642094	1148.534406	-372.194034	96.994163	1135.584406	-161.643194	-59.507484	1233.718120	-216.353966	-69.228004	1239.216359	-301.781961	-2.614977	1059.895803	-102.590816	-18.686072	1119.357361	-438.899862	54.352253	953.550972	-90.833122	108.105834	882.478952	-89.398730	118.642855	794.854743	-95.196506	141.232509	896.405779	-97.520685	183.146428	657.749495	-115.540255	123.305253	568.243510	-88.022220	116.348230	480.231836	-100.577415	70.128917	407.987462	-104.786367	145.495598	473.537865	-124.399418	37.909912	274.623302	-113.283365	-34.866303	257.736828	-162.293533	245.554688	160.884283	-153.452957	140.371699	163.318008	-90.763330	105.186966	1060.758170	-445.287032	191.270297	1065.670916	-437.353447	198.169800	1096.999132	-416.400166	270.883524	1023.022624	-436.526202	403.557139	958.185955	-397.865476	387.490030	936.286831	-287.003163	327.585271	864.301098	-423.227409	298.749766	781.812429	-421.865294	231.012728	724.589872	-426.512341	326.056840	763.445853	-402.620478	168.224530	609.234907	-431.508424	96.844343	584.828654	-393.160061	372.584571	483.823080	-401.749922	261.950424	490.214327	-463.999946	-264.125703	892.297170	-285.033366	-53.481078	79.567507	-474.625081	-53.452455	79.293826	-77.029668	
1002	5.0100	507.398868	1275.225447	-202.916650	499.064226	1242.859042	-460.844417	476.427812	1342.186528	-344.522800	414.646386	1191.416739	-315.787673	506.869460	1108.965743	31.054967	671.312360	959.238312	-51.833438	455.349839	1018.722511	-658.349279	655.519333	967.202767	-502.164299	-99.616703	1188.069642	-256.638411	22.324280	1198.777905	-409.146080	66.116687	1200.157266	-129.556574	69.546483	1148.948931	-372.216271	97.056403	1135.545122	-161.238713	-59.371576	1234.578203	-215.732008	-68.876166	1240.057572	-301.155752	-2.086070	1060.069134	-102.551298	-19.697644	1120.091545	-438.190989	57.786148	954.381718	-91.311514	113.487217	884.723332	-90.677386	126.186742	797.437892	-95.879331	146.017710	899.557734	-99.802310	191.463609	661.399672	-115.880036	128.987886	573.474387	-88.542158	119.144041	485.815617	-101.115054	70.640193	415.056620	-105.450208	148.090423	478.144948	-124.950794	33.598105	283.217358	-113.902355	-39.379351	269.079389	-163.601875	237.011971	161.377542	-152.769537	131.542221	168.223066	-91.045293	103.731772	1059.740350	-446.182615	189.917340	1063.443824	-438.715695	197.362792	1094.503676	-417.716493	268.963613	1019.529584	-438.327670	400.581482	952.423441	-400.069941	384.650967	930.309492	-289.080242	324.751954	857.218187	-425.056328	297.491785	774.186109	-423.639934	230.946684	715.665981	-428.143057	325.450174	755.942961	-404.328454	170.510123	598.966697	-431.953067	100.147114	571.405567	-393.410996	380.573942	484.635379	-402.425780	269.617222	484.860382	-464.734870	-264.215394	892.341151	-285.387764	-53.474402	79.515350	-474.681247	-53.434862	79.303411	-77.076052	
1003	5.0150	507.980107	1274.017462	-203.840790	498.321790	1242.829255	-461.951770	476.247906	1342.033564	-345.107411	414.463359	1191.155898	-317.003635	507.244236	1108.803088	30.939491	671.166594	958.629311	-51.012471	454.451283	1018.178150	-658.776060	654.864708	966.800725	-502.280354	-99.900684	1188.860876	-256.127246	21.573203	1199.807992	-408.859501	66.115323	1199.925627	-129.340981	68.712912	1149.112647	-372.587074	97.152395	1135.454703	-160.893592	-59.274858	1235.178217	-215.165137	-68.788359	1240.748037	-300.478489	-1.346323	1060.245311	-102.518621	-20.888173	1120.467507	-437.638564	61.561819	955.342575	-91.896885	119.482165	887.371607	-91.953993	134.498560	800.484527	-96.764805	151.319463	902.977895	-102.112733	200.394089	665.523490	-116.239144	135.472093	579.108541	-89.045528	122.712584	491.859949	-101.807886	72.092246	422.674469	-105.848576	151.313174	483.366282	-125.907818	30.202912	292.743993	-114.287934	-43.176336	281.196905	-164.181252	228.638875	162.460125	-152.769270	123.560871	173.862045	-91.327023	102.184687	1058.168031	-447.143254	188.469875	1060.398149	-440.015742	196.487836	1091.417117	-419.146689	266.712629	1015.209200	-439.944037	397.139998	945.951992	-402.532030	381.808421	923.643174	-291.722119	321.896030	849.079503	-427.100546	296.273904	765.503275	-425.389051	230.869065	705.705442	-429.534415	324.664925	748.083475	-406.401007	173.132395	587.909628	-432.436333	103.766829	557.283333	-393.620759	387.993743	484.483262	-403.295271	277.032015	478.819204	-465.535907	-264.126128	892.288419	-285.367426	-53.459802	79.476467	-474.738198	-53.429035	79.293270	-77.128352	
1004	5.0200	508.505926	1272.887481	-204.664198	497.625055	1242.940438	-462.678352	476.062569	1341.983900	-345.588973	414.257452	1191.000277	-318.159581	507.991739	1108.488696	31.246482	670.993440	958.051594	-50.425301	453.503957	1017.908130	-658.987485	654.088218	966.323399	-502.298048	-100.193660	1189.369334	-255.641203	20.779479	1200.294100	-408.535447	66.107676	1199.669492	-129.212759	68.036892	1149.024607	-373.163012	97.166864	1135.375522	-160.678778	-59.189938	1235.613735	-214.624029	-68.925965	1241.148673	-299.975139	-0.474777	1060.370629	-102.552786	-22.174270	1120.498893	-437.043556	66.053380	956.528058	-92.138727	125.925352	890.433244	-93.207843	143.326229	803.977352	-97.592916	156.990579	906.920646	-104.462786	209.727534	669.991402	-116.781298	142.523395	585.027751	-89.577250	127.013187	498.330072	-102.371604	74.316266	430.837033	-105.874061	155.107431	488.879388	-126.694258	27.650999	302.796666	-114.026261	-46.225161	293.945936	-164.286339	220.204776	163.311652	-153.461698	116.037987	179.937818	-91.700842	100.454061	1056.120711	-448.105920	186.615164	1056.569843	-440.896278	195.558972	1087.850627	-420.673381	264.202153	1010.155468	-441.551132	393.366907	938.640122	-405.026534	378.586008	916.447018	-294.443881	318.959479	840.038522	-429.327183	295.213776	755.974655	-427.321113	231.006668	694.630300	-430.813341	324.012277	739.328346	-408.278334	176.132458	576.016656	-432.815992	107.914335	542.671251	-393.335721	395.063726	483.228207	-404.640641	284.145272	471.900135	-466.409192	-264.189389	892.290793	-285.770597	-53.461893	79.399368	-474.768020	-53.429754	79.340008	-77.145983	
